<?xml version="1.0" encoding="iso-8859-1"?>
<!-- Generator: Adobe Illustrator 19.0.0, SVG Export Plug-In . SVG Version: 6.00 Build 0)  -->
<svg version="1.1" id="Capa_1" xmlns="http://www.w3.org/2000/svg" xmlns:xlink="http://www.w3.org/1999/xlink" x="0px" y="0px"
	 viewBox="0 0 512 512" style="enable-background:new 0 0 512 512;" xml:space="preserve">
<rect id="SVGCleanerId_0" x="8.016" y="263.966" style="fill:#008F7D;" width="16.031" height="144.282"/>
<polygon style="fill:#FFDA44;" points="280.548,239.917 320.626,207.854 504.986,207.854 504.986,63.572 280.548,63.572 "/>
<g>
	<polygon style="fill:#FFA733;" points="504.986,191.823 504.986,207.854 320.626,207.854 280.548,239.917 280.548,191.823 	"/>
	<rect x="488.955" y="63.574" style="fill:#FFA733;" width="16.031" height="144.282"/>
</g>
<polygon style="fill:#26DEC7;" points="232.454,440.308 192.376,408.245 8.016,408.245 8.016,263.964 232.454,263.964 "/>
<g>
	<rect id="SVGCleanerId_0_1_" x="8.016" y="263.966" style="fill:#008F7D;" width="16.031" height="144.282"/>
</g>
<polygon style="fill:#008F7D;" points="8.016,392.214 8.016,408.245 192.376,408.245 232.454,440.308 232.454,392.214 "/>
<g>
	<rect x="184.36" y="328.592" style="fill:#FFFFFF;" width="16.031" height="15.029"/>
	<rect x="40.078" y="296.529" style="fill:#FFFFFF;" width="16.031" height="15.029"/>
</g>
<path d="M272.532,56.558v198.993l50.73-39.682H512V56.558C512,56.558,272.532,56.558,272.532,56.558z M496.971,200.84H317.99
	l-30.428,23.441V71.588h209.409V200.84z"/>
<path d="M0,416.261h189.74l49.728,39.681V256.95H0V416.261z M15.029,271.979h209.409v152.694l-29.426-23.442H15.029V271.979z"/>
<path d="M81.54,206.626l-20.116-20.117l-10.628,10.628l37.376,37.376l37.377-37.376l-10.628-10.628l-18.012,18.013
	c9.545-75.145,73.88-133.435,151.576-133.435V56.057C161.772,56.057,90.208,122.164,81.54,206.626z"/>
<path d="M387.453,314.759l10.628,10.628l18.012-18.013c-9.546,75.145-73.881,133.435-151.576,133.435v15.029
	c86.713,0,158.277-66.106,166.945-150.568l20.116,20.117l10.628-10.628l-37.376-37.376L387.453,314.759z"/>
<rect x="72.141" y="297.03" width="128.25" height="15.029"/>
<rect x="40.078" y="329.093" width="128.25" height="15.029"/>
<rect x="40.078" y="361.155" width="96.188" height="15.029"/>
<rect x="376.736" y="96.639" width="96.188" height="15.029"/>
<rect x="312.611" y="128.701" width="160.313" height="15.029"/>
<rect x="344.673" y="160.764" width="80.157" height="15.029"/>
<g>
	<rect x="312.611" y="160.263" style="fill:#FFFFFF;" width="16.031" height="15.029"/>
	<rect x="312.611" y="96.138" style="fill:#FFFFFF;" width="16.031" height="15.029"/>
	<rect x="344.673" y="96.138" style="fill:#FFFFFF;" width="16.031" height="15.029"/>
</g>
<g>
</g>
<g>
</g>
<g>
</g>
<g>
</g>
<g>
</g>
<g>
</g>
<g>
</g>
<g>
</g>
<g>
</g>
<g>
</g>
<g>
</g>
<g>
</g>
<g>
</g>
<g>
</g>
<g>
</g>
</svg>
